<mxfile host="app.diagrams.net" modified="2024-03-12T19:24:35.339Z" agent="Mozilla/5.0 (Windows NT 10.0; Win64; x64) AppleWebKit/537.36 (KHTML, like Gecko) Chrome/122.0.0.0 Safari/537.36" etag="7-NykQFSzsMWyKHVBIQh" version="24.0.5" type="github">
  <diagram name="Página-1" id="cuSOxXxb5PABq1tPws8h">
    <mxGraphModel dx="2736" dy="1027" grid="1" gridSize="10" guides="1" tooltips="1" connect="1" arrows="1" fold="1" page="1" pageScale="1" pageWidth="827" pageHeight="1169" math="0" shadow="0">
      <root>
        <mxCell id="0" />
        <mxCell id="1" parent="0" />
        <mxCell id="sW6cjiISW1wCkA5CtbfC-8" value="" style="rounded=0;whiteSpace=wrap;html=1;direction=south;fillColor=#647687;fontColor=#ffffff;strokeColor=#314354;" parent="1" vertex="1">
          <mxGeometry width="250" height="1070" as="geometry" />
        </mxCell>
        <mxCell id="sW6cjiISW1wCkA5CtbfC-9" value="&lt;font style=&quot;font-size: 20px;&quot;&gt;&quot;Minha Imagem&quot;&lt;/font&gt;" style="ellipse;whiteSpace=wrap;html=1;aspect=fixed;" parent="1" vertex="1">
          <mxGeometry x="50" y="40" width="150" height="150" as="geometry" />
        </mxCell>
        <mxCell id="sW6cjiISW1wCkA5CtbfC-15" value="&lt;h1 style=&quot;margin-top: 0px;&quot;&gt;Perfil Escolar:&lt;/h1&gt;&lt;p&gt;&lt;font style=&quot;font-size: 20px;&quot;&gt;&quot;Minha Informações&quot;&lt;/font&gt;&lt;/p&gt;" style="text;html=1;whiteSpace=wrap;overflow=hidden;rounded=0;fillColor=#dae8fc;strokeColor=#6c8ebf;" parent="1" vertex="1">
          <mxGeometry x="250" y="140" width="520" height="180" as="geometry" />
        </mxCell>
        <mxCell id="sW6cjiISW1wCkA5CtbfC-21" value="" style="rounded=0;whiteSpace=wrap;html=1;fillColor=#bac8d3;strokeColor=#23445d;" parent="1" vertex="1">
          <mxGeometry x="250" width="520" height="140" as="geometry" />
        </mxCell>
        <mxCell id="sW6cjiISW1wCkA5CtbfC-23" value="&lt;font face=&quot;Georgia&quot;&gt;Bryan Zanelato&lt;/font&gt;" style="text;html=1;align=center;verticalAlign=middle;whiteSpace=wrap;rounded=0;fontSize=50;" parent="1" vertex="1">
          <mxGeometry x="250" width="520" height="140" as="geometry" />
        </mxCell>
        <mxCell id="sW6cjiISW1wCkA5CtbfC-28" value="&lt;font face=&quot;Times New Roman&quot; style=&quot;font-size: 30px;&quot;&gt;Me contate aqui&lt;/font&gt;" style="text;html=1;align=center;verticalAlign=middle;whiteSpace=wrap;rounded=0;" parent="1" vertex="1">
          <mxGeometry x="15" y="230" width="220" height="80" as="geometry" />
        </mxCell>
        <mxCell id="sW6cjiISW1wCkA5CtbfC-29" value="" style="html=1;shadow=0;dashed=0;align=center;verticalAlign=middle;shape=mxgraph.arrows2.arrow;dy=0.6;dx=40;direction=south;notch=0;fillColor=#dae8fc;gradientColor=#7ea6e0;strokeColor=#6c8ebf;" parent="1" vertex="1">
          <mxGeometry x="110" y="290" width="30" height="60" as="geometry" />
        </mxCell>
        <mxCell id="sW6cjiISW1wCkA5CtbfC-30" value="&lt;font style=&quot;font-size: 20px;&quot;&gt;&quot;Whatsapp&quot;&lt;/font&gt;" style="text;html=1;align=center;verticalAlign=middle;whiteSpace=wrap;rounded=0;" parent="1" vertex="1">
          <mxGeometry x="10" y="370" width="240" height="30" as="geometry" />
        </mxCell>
        <mxCell id="sW6cjiISW1wCkA5CtbfC-31" value="&lt;font style=&quot;font-size: 20px;&quot;&gt;&quot;Instagram&quot;&lt;/font&gt;" style="text;html=1;align=center;verticalAlign=middle;whiteSpace=wrap;rounded=0;" parent="1" vertex="1">
          <mxGeometry x="10" y="410" width="240" height="30" as="geometry" />
        </mxCell>
        <mxCell id="sW6cjiISW1wCkA5CtbfC-32" value="&lt;font face=&quot;Times New Roman&quot; style=&quot;font-size: 30px;&quot;&gt;Habilidades e Competências:&lt;/font&gt;" style="text;html=1;align=center;verticalAlign=middle;whiteSpace=wrap;rounded=0;" parent="1" vertex="1">
          <mxGeometry x="5" y="490" width="250" height="50" as="geometry" />
        </mxCell>
        <mxCell id="sW6cjiISW1wCkA5CtbfC-33" value="" style="rounded=0;whiteSpace=wrap;html=1;fillColor=#dae8fc;strokeColor=#6c8ebf;" parent="1" vertex="1">
          <mxGeometry x="250" y="320" width="520" height="600" as="geometry" />
        </mxCell>
        <mxCell id="sW6cjiISW1wCkA5CtbfC-34" value="&lt;font style=&quot;font-size: 24px;&quot;&gt;Informações Sobre Mim:&lt;/font&gt;" style="text;html=1;align=center;verticalAlign=middle;whiteSpace=wrap;rounded=0;" parent="1" vertex="1">
          <mxGeometry x="250" y="320" width="280" height="60" as="geometry" />
        </mxCell>
        <mxCell id="sW6cjiISW1wCkA5CtbfC-35" value="" style="ellipse;whiteSpace=wrap;html=1;aspect=fixed;fillColor=#f5f5f5;strokeColor=#666666;gradientColor=#b3b3b3;" parent="1" vertex="1">
          <mxGeometry x="5" y="620" width="20" height="20" as="geometry" />
        </mxCell>
        <mxCell id="sW6cjiISW1wCkA5CtbfC-36" value="" style="ellipse;whiteSpace=wrap;html=1;aspect=fixed;fillColor=#f5f5f5;gradientColor=#b3b3b3;strokeColor=#666666;" parent="1" vertex="1">
          <mxGeometry x="5" y="680" width="20" height="20" as="geometry" />
        </mxCell>
        <mxCell id="sW6cjiISW1wCkA5CtbfC-37" value="" style="ellipse;whiteSpace=wrap;html=1;aspect=fixed;fillColor=#f5f5f5;gradientColor=#b3b3b3;strokeColor=#666666;" parent="1" vertex="1">
          <mxGeometry x="5" y="740" width="20" height="20" as="geometry" />
        </mxCell>
        <mxCell id="sW6cjiISW1wCkA5CtbfC-38" value="&quot;Habilidade&quot;" style="text;html=1;align=center;verticalAlign=middle;whiteSpace=wrap;rounded=0;" parent="1" vertex="1">
          <mxGeometry x="40" y="610" width="60" height="30" as="geometry" />
        </mxCell>
        <mxCell id="sW6cjiISW1wCkA5CtbfC-39" value="&quot;Habilidade&quot;" style="text;html=1;align=center;verticalAlign=middle;whiteSpace=wrap;rounded=0;" parent="1" vertex="1">
          <mxGeometry x="40" y="675" width="60" height="30" as="geometry" />
        </mxCell>
        <mxCell id="sW6cjiISW1wCkA5CtbfC-40" value="&quot;Habilidade&quot;" style="text;html=1;align=center;verticalAlign=middle;whiteSpace=wrap;rounded=0;" parent="1" vertex="1">
          <mxGeometry x="40" y="735" width="60" height="30" as="geometry" />
        </mxCell>
        <mxCell id="sW6cjiISW1wCkA5CtbfC-44" value="&lt;h1 style=&quot;margin-top: 0px;&quot;&gt;Hobbies:&lt;/h1&gt;&lt;p&gt;....................................................&lt;/p&gt;&lt;p&gt;....................................................&lt;/p&gt;&lt;p&gt;....................................................&lt;/p&gt;" style="text;html=1;whiteSpace=wrap;overflow=hidden;rounded=0;" parent="1" vertex="1">
          <mxGeometry x="255" y="455" width="180" height="120" as="geometry" />
        </mxCell>
        <mxCell id="sW6cjiISW1wCkA5CtbfC-45" value="&lt;h1 style=&quot;margin-top: 0px;&quot;&gt;&lt;span style=&quot;background-color: initial;&quot;&gt;Gostos:&lt;/span&gt;&lt;br&gt;&lt;/h1&gt;&lt;div&gt;&lt;span style=&quot;background-color: initial;&quot;&gt;&lt;span style=&quot;font-size: 12px; font-weight: 400;&quot;&gt;....................................................&lt;/span&gt;&lt;/span&gt;&lt;/div&gt;&lt;div&gt;&lt;br&gt;&lt;/div&gt;&lt;div&gt;....................................................&lt;/div&gt;&lt;div&gt;&lt;br&gt;&lt;/div&gt;&lt;div&gt;....................................................&lt;/div&gt;" style="text;html=1;whiteSpace=wrap;overflow=hidden;rounded=0;" parent="1" vertex="1">
          <mxGeometry x="255" y="600" width="180" height="120" as="geometry" />
        </mxCell>
        <mxCell id="sW6cjiISW1wCkA5CtbfC-46" value="&lt;h1 style=&quot;margin-top: 0px; font-size: 30px;&quot;&gt;&lt;font face=&quot;Times New Roman&quot;&gt;&amp;nbsp; &amp;nbsp; &amp;nbsp;Curso&lt;/font&gt;&lt;/h1&gt;" style="text;html=1;whiteSpace=wrap;overflow=hidden;rounded=0;" parent="1" vertex="1">
          <mxGeometry x="40" y="800" width="180" height="250" as="geometry" />
        </mxCell>
        <mxCell id="sW6cjiISW1wCkA5CtbfC-47" value="" style="line;strokeWidth=4;html=1;perimeter=backbonePerimeter;points=[];outlineConnect=0;" parent="1" vertex="1">
          <mxGeometry y="780" width="250" height="10" as="geometry" />
        </mxCell>
        <mxCell id="sW6cjiISW1wCkA5CtbfC-48" value="" style="line;strokeWidth=4;html=1;perimeter=backbonePerimeter;points=[];outlineConnect=0;" parent="1" vertex="1">
          <mxGeometry y="445" width="250" height="10" as="geometry" />
        </mxCell>
        <mxCell id="sW6cjiISW1wCkA5CtbfC-49" value="&lt;font style=&quot;font-size: 24px;&quot;&gt;Ciência da Computação, matutino e na UVV.&lt;/font&gt;" style="text;html=1;align=center;verticalAlign=middle;whiteSpace=wrap;rounded=0;" parent="1" vertex="1">
          <mxGeometry x="17.5" y="860" width="215" height="150" as="geometry" />
        </mxCell>
      </root>
    </mxGraphModel>
  </diagram>
</mxfile>
